<svg width="31" height="34" viewBox="0 0 31 34" fill="none" xmlns="http://www.w3.org/2000/svg">
<path d="M0.755796 2.20309C0.393349 2.57302 0.183594 3.14896 0.183594 3.89483V30.4995C0.183594 31.2454 0.393349 31.8213 0.755796 32.1913L0.845252 32.2725L16.1359 17.3701V17.0182L0.845252 2.11587L0.755796 2.20309Z" fill="#E1D4C9"/>
<path d="M23.0776 22.34L17.9863 17.3701V17.0182L23.0837 12.0482L23.1979 12.1129L29.2345 15.4618C30.9573 16.4122 30.9573 17.9761 29.2345 18.9325L23.1979 22.2754L23.0776 22.34Z" fill="#E1D4C9"/>
<path d="M22.2733 23.2008L17.0617 18.1196L1.68164 33.1167C2.25384 33.7031 3.18695 33.7738 4.24807 33.1873L22.2733 23.2008Z" fill="#E1D4C9"/>
<path d="M22.2733 11.1876L4.24807 1.20103C3.18695 0.620579 2.25384 0.691254 1.68164 1.27772L17.0617 16.2688L22.2733 11.1876Z" fill="#E1D4C9"/>
</svg>
